<svg xmlns="http://www.w3.org/2000/svg" xmlns:xlink="http://www.w3.org/1999/xlink" width="609.219" height="777.859" viewBox="0 0 609.219 777.859">
  <defs>
    <clipPath id="clip-path">
      <path id="Tracé_150" data-name="Tracé 150" d="M45.512,0H609.219V777.859H45.512C20.376,777.859,0,755.326,0,727.532V50.327C0,22.532,20.376,0,45.512,0Z" transform="translate(0)" fill="#fff" opacity="0.46"/>
    </clipPath>
  </defs>
  <g id="Groupe_de_masques_1" data-name="Groupe de masques 1" clip-path="url(#clip-path)">
    <g id="Simple_Shiny" data-name="Simple Shiny" transform="translate(-215.248 -322.878)">
      <path id="Tracé_175" data-name="Tracé 175" d="M0,0H613.415V779.314H0Z" transform="translate(211.052 321.421)" fill="#535090"/>
      <path id="Tracé_176" data-name="Tracé 176" d="M418.447,551.954c50.365,1.555,175.594,180.125,218.982,149.691,44.932-31.515,170.456-109.273,188.943-167.252,18.339-57.511-61.632-171.922-69.885-232.636-8.075-59.388,35.488-147.748,8.175-198.4C735.724,49.7,647.065-8.37,593.844-16.169,541.78-23.8,484.025-19.55,436.441,6.685,396.625,28.638,262.061,5.293,233.36,44.759c-28.685,39.443-100,158.821-102.348,210.88-2.218,49.263,4.8,191.4,18.8,237.845" transform="translate(65.019 415.539)" fill="#4b4b7d"/>
      <path id="Tracé_173" data-name="Tracé 173" d="M222.117,580.714c45.176-.763,79.285-45.411,116.256-76.274,35.4-29.555,78.134-52.969,95.18-100.228,16.935-46.954-1.554-99.11-4.915-150.039C425,199.106,447.3,130.169,413.006,92.89c-35.264-38.33-94.466,7.9-140.295-8.2C226.74,68.537,198.1-8.43,150.786.759,104.819,9.688,88.155,78.981,62.849,125.451,40.874,165.807,22.105,206.89,13.028,253.733c-9.746,50.293-21.341,104.073-4.415,151.6C25.68,453.261,67.7,478.812,103.718,508.4c37.257,30.6,73.113,73.076,118.4,72.311" transform="matrix(0.259, -0.966, 0.966, 0.259, 228.58, 1177.334)" fill="#7d79a8"/>
      <path id="Tracé_174" data-name="Tracé 174" d="M212.593,620.652c48.647,1.5,91.87-30.76,133.778-60.156,43.4-30.44,95.549-57.227,113.4-113.228,17.714-55.549-14.3-113.94-22.269-172.583-7.8-57.363,2.295-119.451-24.087-168.373C385.469,54.484,341.18,8.275,289.775.742c-50.288-7.368-91.78,41.931-137.741,67.27-38.458,21.2-82.373,31.252-110.1,69.371C14.232,175.481,2.439,226.536.175,276.82-1.968,324.4,16.038,367.593,29.558,412.454,44.4,461.705,51.406,516.2,83.207,552.376c34.8,39.575,81.238,66.79,129.386,68.276" transform="translate(438.903 0) rotate(45)" fill="#272756"/>
    </g>
  </g>
</svg>
