<svg width="18" height="18" viewBox="0 0 18 18" fill="none" xmlns="http://www.w3.org/2000/svg">
<path d="M12.9827 6.19581L10.0364 9.14209L12.9827 12.0884C13.3068 12.4125 13.3068 12.9428 12.9827 13.2669C12.6586 13.591 12.1283 13.591 11.8042 13.2669L8.85789 10.3206L5.91161 13.2669C5.58752 13.591 5.05719 13.591 4.7331 13.2669C4.40901 12.9428 4.40901 12.4125 4.7331 12.0884L7.67938 9.14209L4.7331 6.19581C4.40901 5.87172 4.40901 5.34139 4.7331 5.0173C5.05719 4.69321 5.58752 4.69321 5.91161 5.0173L8.85789 7.96358L11.8042 5.0173C12.1283 4.69321 12.6586 4.69321 12.9827 5.0173C13.3068 5.34139 13.3068 5.87172 12.9827 6.19581Z" fill="black"/>
</svg>
