<svg xmlns="http://www.w3.org/2000/svg" xmlns:xlink="http://www.w3.org/1999/xlink" width="609.219" height="777.859" viewBox="0 0 609.219 777.859">
  <defs>
    <clipPath id="clip-path">
      <path id="Tracé_150" data-name="Tracé 150" d="M45.512,0H609.219V777.859H45.512C20.376,777.859,0,755.326,0,727.532V50.327C0,22.532,20.376,0,45.512,0Z" transform="translate(0)" fill="#fff" opacity="0.46"/>
    </clipPath>
  </defs>
  <g id="Groupe_de_masques_1" data-name="Groupe de masques 1" clip-path="url(#clip-path)">
    <g id="Simple_Shiny" data-name="Simple Shiny" transform="translate(-161.254 -237.383)">
      <path id="Tracé_175" data-name="Tracé 175" d="M0,0H613.415V779.314H0Z" transform="translate(157.059 235.926)" fill="#535090"/>
      <path id="Tracé_176" data-name="Tracé 176" d="M371.233,458.208c42.1,1.3,146.791,150.58,183.063,125.137C591.858,557,696.792,492,712.246,443.528c15.331-48.077-51.522-143.722-58.422-194.477C647.074,199.4,683.492,125.537,660.659,83.2c-24.191-44.856-98.307-93.4-142.8-99.921C474.336-23.1,426.054-19.552,386.275,2.38,352.991,20.732,240.5,1.216,216.505,34.208c-23.98,32.973-83.6,132.77-85.56,176.29-1.854,41.182,4.017,160,15.718,198.831" transform="translate(154.06 326.189)" fill="#4b4b7d"/>
      <path id="Tracé_173" data-name="Tracé 173" d="M222.117,580.714c45.176-.763,79.285-45.411,116.256-76.274,35.4-29.555,78.134-52.969,95.18-100.228,16.935-46.954-1.554-99.11-4.915-150.039C425,199.106,447.3,130.169,413.006,92.89c-35.264-38.33-94.466,7.9-140.295-8.2C226.74,68.537,198.1-8.43,150.786.759,104.819,9.688,88.155,78.981,62.849,125.451,40.874,165.807,22.105,206.89,13.028,253.733c-9.746,50.293-21.341,104.073-4.415,151.6C25.68,453.261,67.7,478.812,103.718,508.4c37.257,30.6,73.113,73.076,118.4,72.311" transform="translate(722.183 1011.687) rotate(135)" fill="#7d79a8"/>
      <path id="Tracé_174" data-name="Tracé 174" d="M184.738,539.331c42.273,1.3,79.833-26.73,116.25-52.274,37.713-26.451,83.029-49.729,98.545-98.392,15.393-48.271-12.424-99.011-19.351-149.97-6.778-49.847,1.994-103.8-20.931-146.312C334.963,47.345,296.477,7.191,251.807.645c-43.7-6.4-79.754,36.437-119.693,58.456C98.7,77.527,60.534,86.258,36.444,119.383,12.368,152.489,2.119,196.854.152,240.549-1.71,281.9,13.937,319.429,25.685,358.412,38.58,401.21,44.67,448.566,72.3,480c30.237,34.389,70.594,58.039,112.433,59.33" transform="matrix(0.259, 0.966, -0.966, 0.259, 604.327, 0)" fill="#272756"/>
    </g>
  </g>
</svg>
