<svg xmlns="http://www.w3.org/2000/svg" xmlns:xlink="http://www.w3.org/1999/xlink" width="248" height="203" viewBox="0 0 248 203">
  <defs>
    <clipPath id="clip-path">
      <path id="Tracé_257" data-name="Tracé 257" d="M30,0H248V203H30A30,30,0,0,1,0,173V30A30,30,0,0,1,30,0Z" transform="translate(714 177)" fill="#fff"/>
    </clipPath>
  </defs>
  <g id="Groupe_de_masques_3" data-name="Groupe de masques 3" transform="translate(-714 -177)" clip-path="url(#clip-path)">
    <g id="Simple_Shiny" data-name="Simple Shiny" transform="translate(550.427 58.699)">
      <path id="Tracé_175" data-name="Tracé 175" d="M0,0H520.614V265.685H0Z" transform="translate(57.451 83.777)" fill="#535090"/>
      <path id="Tracé_176" data-name="Tracé 176" d="M273.147,252.579c24.941.74,86.955,85.771,108.441,71.279,22.251-15.007,84.411-52.033,93.565-79.641,9.082-27.385-30.52-81.865-34.607-110.776-4-28.279,17.574-70.354,4.048-94.472-14.33-25.551-58.234-53.2-84.59-56.916-25.783-3.632-54.383-1.61-77.947,10.882C262.341,3.389,195.7-7.727,181.491,11.065s-49.523,75.627-50.683,100.416c-1.1,23.458,2.379,91.14,9.311,113.256" transform="translate(14.854 155.781)" fill="#4b4b7d"/>
      <path id="Tracé_173" data-name="Tracé 173" d="M-9.982,85.532c33.056-.361,58.015-21.482,85.068-36.081,25.907-13.981,57.173-25.057,69.646-47.413,12.392-22.211-1.137-46.884-3.6-70.976-2.659-26.049,13.657-58.66-11.438-76.294-25.8-18.132-69.123,3.737-102.657-3.88-33.638-7.641-54.6-44.05-89.216-39.7-33.636,4.224-45.829,37-64.346,58.986-16.08,19.09-29.814,38.524-36.456,60.683-7.132,23.791-15.616,49.231-3.231,71.715,12.488,22.671,43.233,34.758,69.592,48.756C-69.356,65.8-43.119,85.894-9.982,85.532" transform="translate(480.75 360.578)" fill="#7d79a8"/>
      <path id="Tracé_174" data-name="Tracé 174" d="M434.889,199.644c30.433.524,57.473-10.735,83.69-20.994,27.15-10.623,59.774-19.972,70.945-39.516,11.082-19.386-8.944-39.764-13.931-60.23-4.879-20.019,1.436-41.687-15.069-58.761C543.039,2.056,515.332-14.071,483.173-16.7,451.713-19.271,425.757-2.066,397,6.777c-24.059,7.4-51.532,10.907-68.875,24.21S303.419,62.1,302,79.649c-1.34,16.606,9.924,31.679,18.382,47.335,9.283,17.188,13.668,36.207,33.562,48.832,21.768,13.811,50.822,23.309,80.943,23.828" transform="translate(-301.893 16.959)" fill="#272756"/>
    </g>
  </g>
</svg>
